<mxfile host="app.diagrams.net" agent="Mozilla/5.0 (Windows NT 10.0; Win64; x64) AppleWebKit/537.36 (KHTML, like Gecko) Chrome/130.0.0.0 Safari/537.36" version="24.8.3">
  <diagram name="Page-1" id="Fnoq2qjlK88wWc1oOvnY">
    <mxGraphModel dx="1600" dy="851" grid="1" gridSize="10" guides="1" tooltips="1" connect="1" arrows="1" fold="1" page="1" pageScale="1" pageWidth="3300" pageHeight="4681" math="0" shadow="0">
      <root>
        <mxCell id="0" />
        <mxCell id="1" parent="0" />
        <mxCell id="l7N8maQYvU7LaO7XAh8y-1" value="" style="rounded=0;whiteSpace=wrap;html=1;" vertex="1" parent="1">
          <mxGeometry y="20" width="1460" height="1030" as="geometry" />
        </mxCell>
        <mxCell id="l7N8maQYvU7LaO7XAh8y-2" value="" style="shape=umlLifeline;perimeter=lifelinePerimeter;whiteSpace=wrap;html=1;container=1;dropTarget=0;collapsible=0;recursiveResize=0;outlineConnect=0;portConstraint=eastwest;newEdgeStyle={&quot;curved&quot;:0,&quot;rounded&quot;:0};participant=umlActor;" vertex="1" parent="1">
          <mxGeometry x="260" y="120" width="30" height="880" as="geometry" />
        </mxCell>
        <mxCell id="l7N8maQYvU7LaO7XAh8y-3" value="&lt;font style=&quot;font-size: 15px;&quot;&gt;User&lt;/font&gt;" style="text;align=center;fontStyle=1;verticalAlign=middle;spacingLeft=3;spacingRight=3;strokeColor=none;rotatable=0;points=[[0,0.5],[1,0.5]];portConstraint=eastwest;html=1;" vertex="1" parent="1">
          <mxGeometry x="238" y="162" width="80" height="26" as="geometry" />
        </mxCell>
        <mxCell id="l7N8maQYvU7LaO7XAh8y-4" value="&lt;b&gt;&lt;font style=&quot;font-size: 15px;&quot;&gt;Interface&lt;/font&gt;&lt;/b&gt;" style="shape=umlLifeline;perimeter=lifelinePerimeter;whiteSpace=wrap;html=1;container=1;dropTarget=0;collapsible=0;recursiveResize=0;outlineConnect=0;portConstraint=eastwest;newEdgeStyle={&quot;curved&quot;:0,&quot;rounded&quot;:0};" vertex="1" parent="1">
          <mxGeometry x="440" y="140" width="100" height="860" as="geometry" />
        </mxCell>
        <mxCell id="l7N8maQYvU7LaO7XAh8y-5" value="" style="html=1;points=[[0,0,0,0,5],[0,1,0,0,-5],[1,0,0,0,5],[1,1,0,0,-5]];perimeter=orthogonalPerimeter;outlineConnect=0;targetShapes=umlLifeline;portConstraint=eastwest;newEdgeStyle={&quot;curved&quot;:0,&quot;rounded&quot;:0};" vertex="1" parent="l7N8maQYvU7LaO7XAh8y-4">
          <mxGeometry x="45" y="100" width="10" height="650" as="geometry" />
        </mxCell>
        <mxCell id="l7N8maQYvU7LaO7XAh8y-6" value="&lt;font style=&quot;font-size: 15px;&quot;&gt;&lt;b&gt;Views&lt;/b&gt;&lt;/font&gt;" style="shape=umlLifeline;perimeter=lifelinePerimeter;whiteSpace=wrap;html=1;container=1;dropTarget=0;collapsible=0;recursiveResize=0;outlineConnect=0;portConstraint=eastwest;newEdgeStyle={&quot;curved&quot;:0,&quot;rounded&quot;:0};" vertex="1" parent="1">
          <mxGeometry x="700" y="140" width="100" height="860" as="geometry" />
        </mxCell>
        <mxCell id="l7N8maQYvU7LaO7XAh8y-7" value="" style="html=1;points=[[0,0,0,0,5],[0,1,0,0,-5],[1,0,0,0,5],[1,1,0,0,-5]];perimeter=orthogonalPerimeter;outlineConnect=0;targetShapes=umlLifeline;portConstraint=eastwest;newEdgeStyle={&quot;curved&quot;:0,&quot;rounded&quot;:0};" vertex="1" parent="l7N8maQYvU7LaO7XAh8y-6">
          <mxGeometry x="45" y="130" width="10" height="600" as="geometry" />
        </mxCell>
        <mxCell id="l7N8maQYvU7LaO7XAh8y-8" value="" style="html=1;points=[[0,0,0,0,5],[0,1,0,0,-5],[1,0,0,0,5],[1,1,0,0,-5]];perimeter=orthogonalPerimeter;outlineConnect=0;targetShapes=umlLifeline;portConstraint=eastwest;newEdgeStyle={&quot;curved&quot;:0,&quot;rounded&quot;:0};" vertex="1" parent="l7N8maQYvU7LaO7XAh8y-6">
          <mxGeometry x="55" y="336" width="10" height="40" as="geometry" />
        </mxCell>
        <mxCell id="l7N8maQYvU7LaO7XAh8y-9" value="&lt;font style=&quot;font-size: 15px;&quot;&gt;getInstructionvalideeList&lt;/font&gt;()" style="html=1;align=left;spacingLeft=2;endArrow=block;rounded=0;edgeStyle=orthogonalEdgeStyle;curved=0;rounded=0;" edge="1" parent="l7N8maQYvU7LaO7XAh8y-6" source="l7N8maQYvU7LaO7XAh8y-6" target="l7N8maQYvU7LaO7XAh8y-8">
          <mxGeometry x="0.0029" relative="1" as="geometry">
            <mxPoint x="85" y="340" as="sourcePoint" />
            <Array as="points">
              <mxPoint x="115" y="300" />
              <mxPoint x="115" y="356" />
            </Array>
            <mxPoint as="offset" />
          </mxGeometry>
        </mxCell>
        <mxCell id="l7N8maQYvU7LaO7XAh8y-10" value="&lt;b&gt;&lt;font style=&quot;font-size: 15px;&quot;&gt;:Instruction&lt;/font&gt;&lt;/b&gt;" style="shape=umlLifeline;perimeter=lifelinePerimeter;whiteSpace=wrap;html=1;container=1;dropTarget=0;collapsible=0;recursiveResize=0;outlineConnect=0;portConstraint=eastwest;newEdgeStyle={&quot;curved&quot;:0,&quot;rounded&quot;:0};" vertex="1" parent="1">
          <mxGeometry x="1242" y="140" width="100" height="480" as="geometry" />
        </mxCell>
        <mxCell id="l7N8maQYvU7LaO7XAh8y-11" value="&lt;font style=&quot;font-size: 15px;&quot;&gt;SupprimerInstruction()&lt;/font&gt;" style="html=1;verticalAlign=bottom;endArrow=block;curved=0;rounded=0;entryX=0;entryY=0;entryDx=0;entryDy=5;" edge="1" parent="1" source="l7N8maQYvU7LaO7XAh8y-2" target="l7N8maQYvU7LaO7XAh8y-5">
          <mxGeometry relative="1" as="geometry">
            <mxPoint x="460" y="245" as="sourcePoint" />
          </mxGeometry>
        </mxCell>
        <mxCell id="l7N8maQYvU7LaO7XAh8y-12" value="&lt;font style=&quot;font-size: 15px;&quot;&gt;ok&lt;/font&gt;" style="html=1;verticalAlign=bottom;endArrow=open;dashed=1;endSize=8;curved=0;rounded=0;exitX=0;exitY=1;exitDx=0;exitDy=-5;" edge="1" parent="1" source="l7N8maQYvU7LaO7XAh8y-5" target="l7N8maQYvU7LaO7XAh8y-2">
          <mxGeometry x="0.002" relative="1" as="geometry">
            <mxPoint x="460" y="315" as="targetPoint" />
            <mxPoint as="offset" />
          </mxGeometry>
        </mxCell>
        <mxCell id="l7N8maQYvU7LaO7XAh8y-13" value="&lt;font style=&quot;font-size: 15px;&quot;&gt;&lt;b&gt;InstructionValidee&lt;/b&gt;&lt;/font&gt;" style="shape=umlLifeline;perimeter=lifelinePerimeter;whiteSpace=wrap;html=1;container=1;dropTarget=0;collapsible=0;recursiveResize=0;outlineConnect=0;portConstraint=eastwest;newEdgeStyle={&quot;curved&quot;:0,&quot;rounded&quot;:0};" vertex="1" parent="1">
          <mxGeometry x="1020" y="140" width="162" height="860" as="geometry" />
        </mxCell>
        <mxCell id="l7N8maQYvU7LaO7XAh8y-14" value="" style="html=1;points=[[0,0,0,0,5],[0,1,0,0,-5],[1,0,0,0,5],[1,1,0,0,-5]];perimeter=orthogonalPerimeter;outlineConnect=0;targetShapes=umlLifeline;portConstraint=eastwest;newEdgeStyle={&quot;curved&quot;:0,&quot;rounded&quot;:0};" vertex="1" parent="l7N8maQYvU7LaO7XAh8y-13">
          <mxGeometry x="76" y="160" width="10" height="120" as="geometry" />
        </mxCell>
        <mxCell id="l7N8maQYvU7LaO7XAh8y-15" value="&lt;font style=&quot;font-size: 16px;&quot;&gt;DeleteInstruction(id_instruction)&lt;/font&gt;" style="html=1;verticalAlign=bottom;endArrow=block;curved=0;rounded=0;entryX=0;entryY=0;entryDx=0;entryDy=5;" edge="1" parent="1" source="l7N8maQYvU7LaO7XAh8y-4" target="l7N8maQYvU7LaO7XAh8y-7">
          <mxGeometry relative="1" as="geometry">
            <mxPoint x="680" y="275" as="sourcePoint" />
          </mxGeometry>
        </mxCell>
        <mxCell id="l7N8maQYvU7LaO7XAh8y-16" value="&lt;font style=&quot;font-size: 14px;&quot;&gt;statut 409&lt;/font&gt;" style="html=1;verticalAlign=bottom;endArrow=open;dashed=1;endSize=8;curved=0;rounded=0;exitX=0;exitY=1;exitDx=0;exitDy=-5;" edge="1" parent="1" source="l7N8maQYvU7LaO7XAh8y-7" target="l7N8maQYvU7LaO7XAh8y-4">
          <mxGeometry relative="1" as="geometry">
            <mxPoint x="680" y="345" as="targetPoint" />
          </mxGeometry>
        </mxCell>
        <mxCell id="l7N8maQYvU7LaO7XAh8y-17" value="&lt;font style=&quot;font-size: 15px;&quot;&gt;GetInstructionValideeByInstruction(id_instruction)&lt;/font&gt;" style="html=1;verticalAlign=bottom;endArrow=block;curved=0;rounded=0;entryX=0;entryY=0;entryDx=0;entryDy=5;" edge="1" parent="1" source="l7N8maQYvU7LaO7XAh8y-6" target="l7N8maQYvU7LaO7XAh8y-14">
          <mxGeometry relative="1" as="geometry">
            <mxPoint x="850" y="295" as="sourcePoint" />
          </mxGeometry>
        </mxCell>
        <mxCell id="l7N8maQYvU7LaO7XAh8y-18" value="&lt;span style=&quot;font-size: 15px;&quot;&gt;InstructionValideeResult&lt;/span&gt;" style="html=1;verticalAlign=bottom;endArrow=open;dashed=1;endSize=8;curved=0;rounded=0;exitX=0;exitY=1;exitDx=0;exitDy=-5;" edge="1" parent="1" source="l7N8maQYvU7LaO7XAh8y-14" target="l7N8maQYvU7LaO7XAh8y-6">
          <mxGeometry relative="1" as="geometry">
            <mxPoint x="850" y="365" as="targetPoint" />
          </mxGeometry>
        </mxCell>
        <mxCell id="l7N8maQYvU7LaO7XAh8y-20" value="" style="html=1;verticalAlign=bottom;labelBackgroundColor=none;endArrow=block;endFill=1;rounded=0;entryX=0.567;entryY=0.5;entryDx=0;entryDy=0;entryPerimeter=0;" edge="1" parent="1" source="l7N8maQYvU7LaO7XAh8y-7" target="l7N8maQYvU7LaO7XAh8y-19">
          <mxGeometry width="160" relative="1" as="geometry">
            <mxPoint x="710" y="530" as="sourcePoint" />
            <mxPoint x="870" y="530" as="targetPoint" />
          </mxGeometry>
        </mxCell>
        <mxCell id="l7N8maQYvU7LaO7XAh8y-21" value="&lt;font style=&quot;font-size: 16px;&quot;&gt;&lt;b&gt;HistoriqueSuppression&lt;/b&gt;&lt;/font&gt;" style="shape=umlLifeline;perimeter=lifelinePerimeter;whiteSpace=wrap;html=1;container=1;dropTarget=0;collapsible=0;recursiveResize=0;outlineConnect=0;portConstraint=eastwest;newEdgeStyle={&quot;curved&quot;:0,&quot;rounded&quot;:0};" vertex="1" parent="1">
          <mxGeometry x="889" y="670" width="188" height="330" as="geometry" />
        </mxCell>
        <mxCell id="l7N8maQYvU7LaO7XAh8y-22" value="" style="endArrow=open;endFill=1;endSize=12;html=1;rounded=0;entryX=0.024;entryY=0.058;entryDx=0;entryDy=0;entryPerimeter=0;" edge="1" parent="1" source="l7N8maQYvU7LaO7XAh8y-6" target="l7N8maQYvU7LaO7XAh8y-21">
          <mxGeometry width="160" relative="1" as="geometry">
            <mxPoint x="850" y="700" as="sourcePoint" />
            <mxPoint x="1010" y="700" as="targetPoint" />
          </mxGeometry>
        </mxCell>
        <mxCell id="l7N8maQYvU7LaO7XAh8y-23" value="ALT" style="shape=umlFrame;whiteSpace=wrap;html=1;pointerEvents=0;width=140;height=40;" vertex="1" parent="1">
          <mxGeometry x="130" y="570" width="1230" height="360" as="geometry" />
        </mxCell>
        <mxCell id="l7N8maQYvU7LaO7XAh8y-24" value="" style="endArrow=none;startArrow=none;endFill=0;startFill=0;endSize=8;html=1;verticalAlign=bottom;dashed=1;labelBackgroundColor=none;dashPattern=10 10;rounded=0;entryX=1.002;entryY=0.447;entryDx=0;entryDy=0;entryPerimeter=0;exitX=0.001;exitY=0.617;exitDx=0;exitDy=0;exitPerimeter=0;elbow=vertical;" edge="1" parent="1" source="l7N8maQYvU7LaO7XAh8y-23">
          <mxGeometry width="160" relative="1" as="geometry">
            <mxPoint x="187.77999999999997" y="791.52" as="sourcePoint" />
            <mxPoint x="1302.2199999999998" y="787.9199999999998" as="targetPoint" />
          </mxGeometry>
        </mxCell>
        <mxCell id="l7N8maQYvU7LaO7XAh8y-25" value="&lt;font style=&quot;font-size: 15px;&quot;&gt;statut 200&lt;/font&gt;" style="html=1;verticalAlign=bottom;endArrow=open;dashed=1;endSize=8;curved=0;rounded=0;" edge="1" parent="1">
          <mxGeometry relative="1" as="geometry">
            <mxPoint x="537" y="718" as="targetPoint" />
            <mxPoint x="745" y="718" as="sourcePoint" />
          </mxGeometry>
        </mxCell>
        <mxCell id="l7N8maQYvU7LaO7XAh8y-26" value="&lt;font style=&quot;font-size: 15px;&quot;&gt;erreur&lt;/font&gt;" style="html=1;verticalAlign=bottom;endArrow=open;dashed=1;endSize=8;curved=0;rounded=0;" edge="1" parent="1">
          <mxGeometry relative="1" as="geometry">
            <mxPoint x="274.16666666666674" y="743" as="targetPoint" />
            <mxPoint x="527" y="743" as="sourcePoint" />
          </mxGeometry>
        </mxCell>
        <mxCell id="l7N8maQYvU7LaO7XAh8y-27" value="&lt;span style=&quot;font-size: 15px;&quot;&gt;[&lt;/span&gt;&lt;span style=&quot;font-size: 15px;&quot;&gt;Si InstructionValideeList Vide&lt;/span&gt;&lt;span style=&quot;font-size: 15px;&quot;&gt;]&lt;/span&gt;" style="text;align=center;fontStyle=1;verticalAlign=middle;spacingLeft=3;spacingRight=3;strokeColor=none;rotatable=0;points=[[0,0.5],[1,0.5]];portConstraint=eastwest;html=1;" vertex="1" parent="1">
          <mxGeometry x="180" y="620" width="131" height="26" as="geometry" />
        </mxCell>
        <mxCell id="l7N8maQYvU7LaO7XAh8y-28" value="&lt;font style=&quot;font-size: 15px;&quot;&gt;[Si non]&lt;/font&gt;" style="text;align=center;fontStyle=1;verticalAlign=middle;spacingLeft=3;spacingRight=3;strokeColor=none;rotatable=0;points=[[0,0.5],[1,0.5]];portConstraint=eastwest;html=1;" vertex="1" parent="1">
          <mxGeometry x="150" y="810" width="80" height="26" as="geometry" />
        </mxCell>
        <mxCell id="l7N8maQYvU7LaO7XAh8y-29" value="&lt;font style=&quot;font-size: 15px; font-weight: normal;&quot;&gt;DeleteInstruction(id_instruction)&lt;/font&gt;" style="text;align=center;fontStyle=1;verticalAlign=middle;spacingLeft=3;spacingRight=3;strokeColor=none;rotatable=0;points=[[0,0.5],[1,0.5]];portConstraint=eastwest;html=1;" vertex="1" parent="1">
          <mxGeometry x="940" y="594" width="80" height="26" as="geometry" />
        </mxCell>
        <mxCell id="l7N8maQYvU7LaO7XAh8y-30" value="&lt;font style=&quot;font-size: 15px;&quot;&gt;Supprssion d&#39;instruction&lt;/font&gt;" style="shape=umlFrame;whiteSpace=wrap;html=1;pointerEvents=0;recursiveResize=0;container=1;collapsible=0;width=190;height=30;" vertex="1" parent="1">
          <mxGeometry x="50" y="100" width="1360" height="900" as="geometry" />
        </mxCell>
        <mxCell id="l7N8maQYvU7LaO7XAh8y-31" value="&lt;font style=&quot;font-size: 15px;&quot;&gt;Create&lt;/font&gt;()" style="text;html=1;align=center;verticalAlign=middle;whiteSpace=wrap;rounded=0;" vertex="1" parent="l7N8maQYvU7LaO7XAh8y-30">
          <mxGeometry x="730" y="560" width="60" height="30" as="geometry" />
        </mxCell>
        <mxCell id="l7N8maQYvU7LaO7XAh8y-19" value="" style="shape=umlDestroy;html=1;" vertex="1" parent="l7N8maQYvU7LaO7XAh8y-30">
          <mxGeometry x="1227" y="500" width="30" height="30" as="geometry" />
        </mxCell>
      </root>
    </mxGraphModel>
  </diagram>
</mxfile>
